PathFileType   4   (X/Y/Z)
DataRate  CameraRate  NumFrames  NumMarkers  Units  OrigDataRate  OrigDataStartFrame  OrigNumFrames  
  120.0      120.0        5         37         mm      120.0          101        134
Frame#      Time                    midhip                           hip_r                           hip_l                          knee_r                          knee_l                         ankle_r                         ankle_l                         midasis                          asis_r                          asis_l                          psis_r                          psis_l                    epicondLat_r                    epicondLat_l                    epicondMed_r                    epicondMed_l                  malleolusLat_r                  malleolusLat_l                 malleolusMedv_r                 malleolusMedv_l                    sternalnotch                  xyphoidprocess                            neck                           toe_r                           toe_l                     thighwand_r                     thighwand_l                     upperleg1_r                     upperleg1_l                     upperleg2_r                     upperleg2_l                     shankwand_r                     shankwand_l                     lowerleg1_r                     lowerleg1_l                   subclavicle_r                   subclavicle_l            
              X1          Y1          Z1          X2          Y2          Z2          X3          Y3          Z3          X4          Y4          Z4          X5          Y5          Z5          X6          Y6          Z6          X7          Y7          Z7          X8          Y8          Z8          X9          Y9          Z9          X10          Y10          Z10          X11          Y11          Z11          X12          Y12          Z12          X13          Y13          Z13          X14          Y14          Z14          X15          Y15          Z15          X16          Y16          Z16          X17          Y17          Z17          X18          Y18          Z18          X19          Y19          Z19          X20          Y20          Z20          X21          Y21          Z21          X22          Y22          Z22          X23          Y23          Z23          X24          Y24          Z24          X25          Y25          Z25          X26          Y26          Z26          X27          Y27          Z27          X28          Y28          Z28          X29          Y29          Z29          X30          Y30          Z30          X31          Y31          Z31          X32          Y32          Z32          X33          Y33          Z33          X34          Y34          Z34          X35          Y35          Z35          X36          Y36          Z36          X37          Y37          Z37          

	101	0.98333	2056.748	776.257	-257.942	2052.042	770.628	-200.985	2061.454	781.887	-314.899	1997.955	429.518	-197.585	2109.410	435.573	-337.647	1989.627	65.358	-215.350	1953.140	122.755	-312.666	2091.923	847.958	-248.520	2098.117	843.131	-137.732	2085.728	852.784	-359.307	1918.070	876.056	-206.650	1912.939	875.222	-262.073	2044.695	418.095	-138.672	2117.064	427.886	-395.235	2004.467	429.100	-255.699	2142.542	428.663	-273.933	1990.981	63.020	-177.947	1938.418	128.048	-345.643	1984.334	62.948	-248.489	1958.461	123.810	-279.479	2080.450	1200.437	-252.591	2087.787	1098.710	-258.929	1973.493	1271.657	-241.407	2072.982	46.272	-216.497	2021.838	70.596	-335.357	2160.870	556.596	-175.779	2192.785	604.219	-408.436	2112.738	595.261	-133.284	2165.852	639.797	-340.477	2095.756	538.261	-138.824	2173.958	581.855	-334.248	2124.066	172.701	-206.347	1965.428	225.665	-438.420	2044.247	163.294	-208.885	1981.011	212.710	-362.099	2084.963	1198.680	-196.201	2081.791	1202.461	-302.984
	102	0.99167	2062.557	776.125	-258.057	2057.723	770.395	-201.120	2067.392	781.854	-314.993	2001.253	429.571	-197.703	2118.832	437.352	-337.295	1989.593	65.421	-215.427	1973.820	117.242	-314.200	2097.819	847.787	-248.436	2103.794	842.742	-137.573	2091.843	852.831	-359.299	1923.797	876.034	-207.200	1919.238	875.180	-262.629	2047.183	417.893	-138.759	2126.757	428.658	-395.011	2008.023	429.110	-256.042	2151.746	428.492	-276.539	1990.958	63.071	-178.026	1958.881	122.201	-347.132	1984.372	63.139	-248.589	1979.226	118.118	-281.047	2086.716	1200.320	-253.030	2093.904	1098.547	-258.778	1980.050	1271.635	-241.720	2072.974	46.278	-216.529	2044.700	68.497	-337.823	2164.978	555.586	-175.611	2200.429	605.462	-407.825	2116.948	594.354	-133.312	2172.691	640.990	-339.366	2099.730	537.869	-138.866	2181.464	583.085	-334.125	2124.989	171.733	-206.521	1982.213	221.368	-439.357	2045.379	162.889	-208.968	1998.469	208.340	-363.027	2091.323	1198.893	-196.728	2087.976	1202.040	-303.345
	103	1.00000	2068.342	775.856	-258.124	2063.340	770.036	-201.212	2073.344	781.677	-315.037	2004.437	429.054	-197.955	2127.189	437.741	-336.885	1989.620	65.497	-215.485	1994.907	111.815	-315.792	2103.726	847.498	-248.318	2109.428	842.247	-137.350	2098.024	852.750	-359.286	1929.518	875.942	-207.787	1925.434	875.111	-263.201	2049.739	417.671	-138.910	2136.149	429.302	-394.752	2011.770	428.019	-256.019	2159.364	428.985	-276.077	1990.979	63.147	-178.083	1979.711	116.436	-348.655	1984.475	63.504	-248.681	2001.080	112.446	-282.890	2092.937	1200.089	-253.880	2099.945	1098.279	-259.162	1986.476	1271.594	-242.430	2073.023	46.361	-216.566	2067.713	66.519	-340.346	2169.152	554.602	-175.398	2207.844	606.478	-407.213	2120.770	593.553	-133.583	2179.421	641.787	-338.660	2103.235	536.934	-138.919	2188.545	583.641	-333.377	2125.963	170.694	-206.646	1999.018	217.057	-440.267	2046.839	162.501	-208.947	2016.609	203.824	-364.394	2097.837	1198.932	-197.519	2093.935	1201.562	-304.288
	104	1.00833	2074.146	775.483	-258.161	2068.955	769.583	-201.273	2079.337	781.383	-315.048	2007.937	428.965	-198.304	2134.549	437.447	-336.474	1989.706	65.589	-215.524	2016.366	106.565	-317.457	2109.650	847.119	-248.177	2115.031	841.670	-137.106	2104.269	852.569	-359.247	1935.236	875.780	-208.376	1931.483	875.010	-263.760	2052.363	417.419	-139.106	2145.205	429.819	-394.480	2016.100	427.278	-256.472	2165.421	429.783	-274.087	1991.036	63.249	-178.121	2000.866	110.843	-350.225	1984.668	63.670	-248.751	2022.519	107.167	-284.538	2099.125	1199.723	-254.647	2105.720	1097.881	-259.850	1993.157	1271.537	-242.950	2073.137	46.517	-216.615	2090.855	64.714	-342.875	2173.363	553.624	-175.123	2215.027	607.258	-406.597	2124.922	593.211	-134.115	2185.934	642.159	-338.153	2106.997	536.309	-139.259	2195.065	583.947	-332.310	2126.995	169.600	-206.709	2015.805	212.798	-441.138	2048.023	162.150	-209.069	2034.211	199.845	-365.256	2104.174	1198.593	-198.035	2099.991	1201.151	-305.320
	105	1.01667	2080.006	775.046	-258.213	2074.620	769.067	-201.352	2085.392	781.025	-315.074	2011.108	429.582	-198.672	2142.442	436.872	-336.165	1989.839	65.698	-215.552	2038.139	101.598	-319.198	2115.585	846.682	-248.027	2120.607	841.049	-136.882	2110.564	852.315	-359.172	1940.966	875.539	-208.964	1937.383	874.865	-264.303	2055.055	417.132	-139.319	2153.900	430.203	-394.199	2020.047	427.571	-257.322	2172.364	430.463	-272.159	1991.120	63.374	-178.146	2022.297	105.518	-351.846	1984.802	63.625	-248.767	2043.617	102.154	-286.032	2105.342	1199.210	-255.024	2111.493	1097.341	-260.238	1999.893	1271.347	-243.376	2073.310	46.722	-216.679	2114.087	63.114	-345.367	2177.571	552.627	-174.779	2221.980	607.799	-405.976	2129.352	592.998	-134.407	2192.270	642.327	-337.779	2110.824	535.901	-139.590	2201.627	584.400	-331.418	2128.086	168.472	-206.699	2032.557	208.646	-441.964	2048.737	161.710	-209.212	2051.317	196.188	-365.635	2110.271	1198.038	-198.139	2106.316	1200.652	-305.957
